<?xml version="1.0" encoding="UTF-8" standalone="no"?>
<svg width="35px" height="50px" viewBox="0 0 35 50" version="1.1" xmlns="http://www.w3.org/2000/svg" xmlns:xlink="http://www.w3.org/1999/xlink" xmlns:sketch="http://www.bohemiancoding.com/sketch/ns">
    <!-- Generator: Sketch 3.3.2 (12043) - http://www.bohemiancoding.com/sketch -->
    <title>Imported Layers</title>
    <desc>Created with Sketch.</desc>
    <defs></defs>
    <g id="Page-1" stroke="none" stroke-width="1" fill="none" fill-rule="evenodd" sketch:type="MSPage">
        <g id="Desktop-HD-2" sketch:type="MSArtboardGroup" transform="translate(-272.000000, -3398.000000)" fill="#3B75B4">
            <g id="Imported-Layers" sketch:type="MSLayerGroup" transform="translate(272.000000, 3398.000000)">
                <path d="M10.894,9.833 C10.84,9.833 10.809,9.836 10.808,9.842 C8.385,9.961 6.042,10.461 3.904,11.694 C1.96,12.817 0.565,14.402 0.169,16.728 C-0.155,18.684 0.028,20.637 0.713,22.475 C1.332,24.125 2.11,25.711 2.834,27.311 C3.696,29.203 4.26,31.154 4.302,33.25 C4.314,33.792 4.338,34.334 4.435,34.863 C4.774,36.627 5.599,38.057 7.263,38.832 C7.821,39.089 8.394,39.174 8.973,39.174 C9.44,39.174 9.91,39.119 10.378,39.054 C12.345,38.771 13.636,37.6 14.032,35.752 C14.425,33.919 14.347,32.135 13.29,30.533 C12.713,29.66 11.972,28.891 11.344,28.04 C10.908,27.44 10.434,26.825 10.174,26.14 C9.364,23.942 9.751,21.897 11.288,20.156 C12.035,19.309 12.91,18.584 13.73,17.815 C14.884,16.728 15.637,15.467 15.7,13.804 C15.771,12.027 14.897,10.581 13.312,10.142 C12.61,9.955 11.249,9.833 10.894,9.833" id="Fill-1" sketch:type="MSShapeGroup"></path>
                <path d="M15.093,0.921 C14.6,0.921 14.077,1.148 13.599,1.619 C12.422,2.785 12.042,5.327 12.819,6.817 C13.237,7.611 13.866,8.018 14.521,8.018 C15.069,8.018 15.635,7.733 16.111,7.148 C16.835,6.254 17.124,5.195 17.162,3.919 C17.14,3.734 17.121,3.418 17.062,3.115 C17.013,2.854 16.936,2.6 16.845,2.361 C16.491,1.421 15.825,0.921 15.093,0.921" id="Fill-2" sketch:type="MSShapeGroup"></path>
                <path d="M9.738,2.501 C9.332,2.501 8.918,2.715 8.58,3.149 C8.123,3.742 7.94,4.434 7.947,5.189 C7.94,5.828 8.089,6.387 8.391,6.822 C8.689,7.268 9.087,7.494 9.499,7.494 C9.837,7.494 10.184,7.342 10.492,7.033 C11.395,6.139 11.599,4.346 10.928,3.261 C10.615,2.757 10.182,2.501 9.738,2.501" id="Fill-3" sketch:type="MSShapeGroup"></path>
                <path d="M5.694,3.949 C5.402,3.949 5.112,4.092 4.871,4.377 C4.174,5.195 4.167,6.794 4.852,7.627 C5.098,7.929 5.4,8.081 5.7,8.081 C6.001,8.081 6.301,7.929 6.543,7.627 C6.923,7.154 7.039,6.597 7.065,6.02 C7.039,5.414 6.915,4.842 6.521,4.377 C6.278,4.092 5.986,3.949 5.694,3.949" id="Fill-4" sketch:type="MSShapeGroup"></path>
                <path d="M2.85,5.962 C2.546,5.962 2.267,6.139 2.1,6.484 C1.973,6.746 1.937,7.049 1.856,7.339 C1.925,7.993 2.11,8.565 2.61,8.981 C2.799,9.136 3,9.211 3.194,9.211 C3.49,9.211 3.767,9.036 3.95,8.707 C4.358,7.966 4.111,6.717 3.454,6.194 C3.259,6.038 3.049,5.962 2.85,5.962" id="Fill-5" sketch:type="MSShapeGroup"></path>
                <path d="M1.229,8.344 C1.024,8.344 0.812,8.449 0.643,8.65 C0.217,9.156 0.191,10.124 0.585,10.659 C0.759,10.892 0.982,11.014 1.199,11.014 C1.414,11.014 1.623,10.896 1.777,10.65 C1.96,10.363 2.038,9.997 2.163,9.645 C2.038,9.299 1.968,8.959 1.79,8.69 C1.647,8.457 1.442,8.344 1.229,8.344" id="Fill-6" sketch:type="MSShapeGroup"></path>
                <path d="M21.356,20.071 C19.706,20.071 18.486,21.235 18.079,22.96 C17.69,24.584 18.085,26 18.91,27.355 C19.496,28.32 20.151,29.25 20.637,30.266 C21.653,32.346 21.49,34.426 20.123,36.323 C19.693,36.922 19.065,37.387 18.486,37.844 C17.662,38.508 16.747,39.046 15.949,39.742 C14.503,40.996 13.962,42.703 13.848,44.572 C13.741,46.463 14.673,47.93 16.491,48.725 C17.29,49.073 18.102,49.386 18.972,49.386 C19.162,49.386 19.355,49.371 19.552,49.338 C21.363,49.037 22.534,47.881 23.331,46.272 C23.572,45.792 23.732,45.271 23.888,44.747 C24.487,42.74 25.552,41.004 26.885,39.419 C28.013,38.066 29.181,36.747 30.218,35.32 C31.369,33.729 32.059,31.894 32.27,29.928 C32.517,27.58 31.587,25.676 30.015,24.076 C28.274,22.315 26.159,21.207 23.852,20.445 C23.852,20.408 22.195,20.071 21.356,20.071" id="Fill-7" sketch:type="MSShapeGroup"></path>
                <path d="M21.678,10.655 C21.098,10.655 20.505,10.978 20.03,11.631 C19.875,11.842 19.734,12.066 19.615,12.301 C19.48,12.584 19.375,12.879 19.305,13.049 C19.003,14.291 18.995,15.382 19.461,16.447 C19.841,17.312 20.485,17.763 21.179,17.763 C21.694,17.763 22.237,17.514 22.718,17 C23.867,15.778 24.177,13.217 23.345,11.78 C22.916,11.033 22.305,10.655 21.678,10.655" id="Fill-8" sketch:type="MSShapeGroup"></path>
                <path d="M26.53,13.613 C26.185,13.613 25.821,13.763 25.488,14.071 C24.551,14.945 24.276,16.722 24.902,17.83 C25.183,18.322 25.596,18.576 26.04,18.576 C26.353,18.576 26.682,18.449 26.991,18.19 C27.398,17.834 27.688,17.348 27.849,16.722 C28.061,16.002 28.061,15.284 27.781,14.585 C27.518,13.947 27.046,13.613 26.53,13.613" id="Fill-9" sketch:type="MSShapeGroup"></path>
                <path d="M30.102,16.097 C29.889,16.097 29.664,16.17 29.444,16.321 C28.928,16.666 28.668,17.185 28.478,17.758 C28.351,18.329 28.316,18.901 28.548,19.452 C28.75,19.907 29.096,20.15 29.485,20.15 C29.71,20.15 29.949,20.069 30.184,19.902 C31.065,19.28 31.481,17.737 31.03,16.764 C30.827,16.33 30.484,16.097 30.102,16.097" id="Fill-10" sketch:type="MSShapeGroup"></path>
                <path d="M32.333,18.801 C32.199,18.801 32.056,18.831 31.911,18.893 C31.136,19.224 30.566,20.36 30.769,21.185 C30.881,21.633 31.189,21.896 31.574,21.896 C31.703,21.896 31.841,21.867 31.983,21.804 C32.581,21.537 32.913,21.037 33.146,20.424 C33.146,20.12 33.187,19.818 33.138,19.535 C33.053,19.065 32.732,18.801 32.333,18.801" id="Fill-11" sketch:type="MSShapeGroup"></path>
                <path d="M33.326,21.534 C33.166,21.534 33,21.599 32.85,21.737 C32.61,21.955 32.453,22.256 32.236,22.552 C32.264,22.932 32.243,23.308 32.341,23.631 C32.446,23.978 32.688,24.155 32.967,24.155 C33.136,24.155 33.319,24.089 33.492,23.957 C34.013,23.541 34.238,22.61 33.963,22.01 C33.828,21.705 33.585,21.534 33.326,21.534" id="Fill-12" sketch:type="MSShapeGroup"></path>
            </g>
        </g>
    </g>
</svg>