<?xml version="1.0" encoding="UTF-8" standalone="no"?>
<svg width="145px" height="43px" viewBox="0 0 145 43" version="1.1" xmlns="http://www.w3.org/2000/svg" xmlns:xlink="http://www.w3.org/1999/xlink" xmlns:sketch="http://www.bohemiancoding.com/sketch/ns">
    <!-- Generator: Sketch 3.3.2 (12043) - http://www.bohemiancoding.com/sketch -->
    <title>indicator - detection</title>
    <desc>Created with Sketch.</desc>
    <defs></defs>
    <g id="Page-1" stroke="none" stroke-width="1" fill="none" fill-rule="evenodd" sketch:type="MSPage">
        <g id="Desktop-HD-2" sketch:type="MSArtboardGroup" transform="translate(-158.000000, -2077.000000)">
            <g id="indicator---detection" sketch:type="MSLayerGroup" transform="translate(158.319897, 2077.077405)">
                <g id="General_Electric" transform="translate(8.471617, 7.700000)" sketch:type="MSShapeGroup">
                    <path d="M0.0356019596,0.0970266532 L26.4297993,0.0970266532 L26.4297993,27.7225356 L0.0356019596,27.7225356 L0.0356019596,0.0970266532 Z" id="Fill-1"></path>
                    <path d="M25.2653414,13.9097811 C25.2653414,6.96700098 19.8660304,1.31580754 13.2327006,1.31580754 C6.59937093,1.31580754 1.2000599,6.96700098 1.2000599,13.9097811 C1.2000599,20.8795052 6.59937093,26.5037547 13.2327006,26.5037547 C19.8660304,26.5037547 25.2653414,20.8795052 25.2653414,13.9097811 L25.2653414,13.9097811 Z M24.6910544,13.9097811 C24.6910544,20.5386937 19.5661523,25.9028201 13.2327006,25.9028201 C6.89924897,25.9028201 1.76572026,20.5386937 1.76572026,13.9097811 C1.76572026,7.28086859 6.89924897,1.90785644 13.2327006,1.90785644 C19.5661523,1.90785644 24.6910544,7.31684154 24.6910544,13.9097811 L24.6910544,13.9097811 Z M23.9625835,13.9097811 C23.9625835,9.92710216 22.0257,5.80984707 17.8606815,4.49117316 C16.9950062,4.21313519 16.2665353,4.03370038 15.4266029,4.03370038 C13.498346,4.03370038 13.4297438,5.18196854 12.5299727,5.18196854 C12.0327777,5.18196854 11.6985301,4.80518409 11.6985301,4.3477113 C11.6985301,3.54942702 12.598438,2.92140517 14.0296368,2.92140517 C15.3666273,2.92140517 16.3951132,3.27124573 16.5921563,3.36999221 L16.6265259,3.27124573 C16.2665353,3.12778387 14.9981471,2.67031108 13.2327006,2.67031108 C9.39316624,2.67031108 5.49379315,4.7333815 4.23389458,9.05701529 C3.96824919,9.96293179 3.79681206,10.7344155 3.79681206,11.6045024 C3.79681206,13.6317432 4.8937632,13.7303463 4.8937632,14.6722358 C4.8937632,15.1656815 4.53390955,15.5155221 4.09682703,15.5155221 C3.33398658,15.5155221 2.73409356,14.6004332 2.73409356,13.0666381 C2.73409356,11.676305 3.06834119,10.5909536 3.1283168,10.3845749 L3.03410854,10.348602 C2.93127365,10.7702451 2.4940542,12.0619752 2.4940542,13.9097811 C2.4940542,17.9553769 4.46530731,22.0366591 8.59609314,23.3642187 C9.46176848,23.6424 10.198866,23.8128058 11.0301717,23.8128058 C12.9669183,23.8128058 13.0270309,22.628708 13.9269389,22.628708 C14.398254,22.628708 14.7667343,23.0143782 14.7667343,23.4987948 C14.7667343,24.2702786 13.8925693,24.8981571 12.4270009,24.8981571 C11.098637,24.8981571 10.0274288,24.5483165 9.86448141,24.4765139 L9.83024876,24.5841462 C10.198866,24.7545519 11.4672542,25.1403654 13.2327006,25.1403654 C17.0636084,25.1403654 20.9973511,23.1131247 22.2315067,18.7536612 C22.4971521,17.8835744 22.6599626,17.0851468 22.6599626,16.2420038 C22.6599626,14.1878191 21.5630115,14.1161598 21.5630115,13.1742704 C21.5630115,12.6540241 21.8971222,12.3041835 22.3599476,12.3041835 C23.1312778,12.3041835 23.7311708,13.246073 23.7311708,14.779868 C23.7311708,16.1434006 23.3970601,17.2197229 23.3284579,17.4619312 L23.4312928,17.4977608 C23.5598706,17.0851468 23.9625835,15.7935601 23.9625835,13.9097811 L23.9625835,13.9097811 Z M19.926006,17.2556958 C19.926006,18.8253205 18.6320117,20.4668911 16.7293608,20.4668911 C14.4324867,20.4668911 13.2669333,18.4396503 13.2669333,16.627674 C13.2669333,14.0801869 14.9295448,13.0038646 15.6322727,12.6180511 C15.4952052,12.5104189 15.3923703,12.3759861 15.2980251,12.1965513 C14.4924623,12.7886002 13.7639914,13.3177322 12.2299578,14.2237921 C12.1613555,15.3360873 12.0671473,16.5560147 11.7928752,17.3991577 C11.2272149,19.1751611 10.0616615,20.4668911 8.52762783,20.4668911 C7.2334966,20.4668911 6.59937093,19.489172 6.59937093,18.4396503 C6.59937093,17.6771957 7.02782682,16.6994766 7.79915697,15.9639658 C8.76753027,15.057906 9.83024876,14.50183 11.2958171,13.6945167 C11.3300498,13.4882813 11.3642824,13.2819026 11.398652,13.0308085 C11.0301717,13.3805058 10.498744,13.5241109 10.0616615,13.5241109 C9.36742329,13.5241109 8.79327322,12.8962324 8.66469538,12.2323809 C7.73055473,12.1605783 7.02782682,11.4608972 6.99345724,10.348602 C6.99345724,9.55031771 7.29347221,8.85063659 7.79915697,8.85063659 C7.99620012,8.85063659 8.06480236,9.02104233 8.06480236,9.16464751 C8.06480236,9.29922362 7.89336523,9.75669641 7.89336523,10.2051401 C7.89336523,10.6626129 8.09903501,11.2546618 8.63046272,11.2546618 C8.63046272,9.44268548 9.898851,7.10157709 11.398652,7.10157709 C12.3927683,7.10157709 12.5299727,7.87291749 12.5299727,8.22275805 C12.5299727,9.86432864 10.9615695,11.676305 9.69318122,12.1247487 C9.72741387,12.2682105 9.86448141,12.6540241 10.2673313,12.6540241 C10.7643894,12.6540241 11.3642824,12.1605783 11.6642974,11.7749081 C11.7928752,11.0484264 12.29856,9.99890475 12.9669183,9.99890475 C13.2327006,9.99890475 13.3612785,10.2051401 13.3612785,10.4563775 C13.3612785,10.9766238 12.8298508,11.640332 12.4270009,12.0889191 C12.3670253,12.4387596 12.3327927,12.8244298 12.3327927,13.1382974 C13.498346,12.4027867 14.0982391,12.0260022 14.9639144,11.362294 C14.8953122,11.1200857 14.8953122,10.8330187 14.8953122,10.5549807 C14.8953122,8.92243918 15.9322877,7.10157709 17.2950212,7.10157709 C18.0663513,7.10157709 18.4605746,7.66668211 18.4605746,8.29456064 C18.4605746,9.47865844 17.4920643,10.5191511 16.1294678,11.6045024 C16.2323027,11.8825403 16.3951132,12.1247487 16.6607586,12.2682105 C16.6949912,12.1965513 17.1322107,12.1247487 17.4920643,12.1247487 C17.8949142,12.1247487 18.4605746,12.2323809 18.4605746,12.6540241 C18.4605746,13.1382974 17.8263119,13.246073 17.3292538,13.246073 C17.0636084,13.2819026 16.6265259,13.1742704 16.6265259,13.1742704 C15.898055,13.3805058 14.4924623,14.2596217 14.4924623,16.4842121 C14.4924623,17.9912066 15.3923703,19.3815398 16.797963,19.3815398 C17.8606815,19.3815398 18.7262199,18.5472825 18.7604526,17.2556958 C18.7604526,16.4214386 18.426205,15.5423226 17.6292688,15.5423226 C17.2264189,15.5423226 16.8664283,15.8563336 16.8664283,16.3138064 C16.8321957,17.0134875 17.3292538,17.0851468 17.3292538,17.5337338 C17.3292538,17.8476014 17.0978411,17.9912066 16.8664283,17.9912066 C16.1979331,17.9912066 15.6923853,17.2915255 15.6923853,16.4214386 C15.6923853,15.3719169 16.5665503,14.50183 17.6977341,14.50183 C19.1633025,14.50183 19.926006,15.8293897 19.926006,17.2556958 L19.926006,17.2556958 Z M17.4663214,8.46496639 C17.4663214,8.29456064 17.4320887,8.07929619 17.2264189,8.07929619 C16.7293608,8.07929619 15.9322877,9.20047715 15.9322877,10.6267833 C16.926404,9.72072346 17.4663214,8.94938306 17.4663214,8.46496639 L17.4663214,8.46496639 Z M11.5614625,8.32150453 C11.5614625,8.15095546 11.4672542,8.07929619 11.3300498,8.07929619 C10.6273219,8.07929619 9.63320561,9.99890475 9.63320561,11.1470296 C10.7301568,10.5191511 11.5614625,9.09284492 11.5614625,8.32150453 L11.5614625,8.32150453 Z M11.1672393,14.8516706 C9.66743826,15.6141252 7.76478738,16.9775145 7.76478738,18.4756233 C7.76478738,19.0316992 8.0305697,19.3815398 8.52762783,19.3815398 C9.99305926,19.3815398 10.8929673,16.9416849 11.1672393,14.8516706 L11.1672393,14.8516706 Z" id="Fill-2" fill="#00FF0F"></path>
                </g>
                <g id="brackets" transform="translate(0.000000, 0.101899)" stroke="#FFFFFF" stroke-width="3" stroke-linecap="square" sketch:type="MSShapeGroup">
                    <path d="M1.38537126,1.45 L1.38537126,41.0833333" id="Line"></path>
                    <path d="M142.789312,1.45 L142.789312,41.0833333" id="Line"></path>
                    <path d="M141.277998,1.45 L134.812932,1.45" id="Line"></path>
                    <path d="M141.277998,41.0833333 L134.812932,41.0833333" id="Line"></path>
                    <path d="M9.69759883,41.0833333 L3.23253294,41.0833333" id="Line"></path>
                    <path d="M9.69759883,1.45 L3.23253294,1.45" id="Line"></path>
                </g>
                <text id="125/85" sketch:type="MSTextLayer" font-family="Oswald" font-size="20" font-weight="normal" fill="#FFFFFF">
                    <tspan x="64.6746832" y="29.9740839">125/85</tspan>
                </text>
            </g>
        </g>
    </g>
</svg>