<?xml version="1.0" encoding="utf-8"?>
<!-- Generator: Adobe Illustrator 18.1.1, SVG Export Plug-In . SVG Version: 6.00 Build 0)  -->
<!DOCTYPE svg PUBLIC "-//W3C//DTD SVG 1.1//EN" "http://www.w3.org/Graphics/SVG/1.1/DTD/svg11.dtd">
<svg version="1.1" id="Layer_1" xmlns:sketch="http://www.bohemiancoding.com/sketch/ns"
	 xmlns="http://www.w3.org/2000/svg" xmlns:xlink="http://www.w3.org/1999/xlink" x="0px" y="0px" viewBox="-481 482 36 36"
	 enable-background="new -481 482 36 36" xml:space="preserve">
<title>Facebook</title>
<desc>Created with Sketch.</desc>
<g id="Page-1" sketch:type="MSPage">
	<g id="_x36_80x680" transform="translate(-42.000000, -364.000000)" sketch:type="MSArtboardGroup">
		<g id="Row-5" transform="translate(42.000000, 364.000000)" sketch:type="MSLayerGroup">
			<path id="Facebook" sketch:type="MSShapeGroup" fill="#FDFDFD" d="M-445,500c0,9.9-8.1,18-18,18s-18-8.1-18-18s8.1-18,18-18
				S-445,490.1-445,500L-445,500z M-461.9,500h1.9l0.3-2.4h-2.2l0-1.2c0-0.6,0.1-1,1-1h1.2V493h-1.9c-2.3,0-3.2,1.2-3.2,3.2v1.5
				h-1.5v2.4h1.5v7h2.9V500L-461.9,500z"/>
		</g>
	</g>
</g>
</svg>
