<?xml version="1.0" encoding="UTF-8" standalone="no"?>
<svg width="43px" height="40px" viewBox="0 0 43 40" version="1.1" xmlns="http://www.w3.org/2000/svg" xmlns:xlink="http://www.w3.org/1999/xlink" xmlns:sketch="http://www.bohemiancoding.com/sketch/ns">
    <!-- Generator: Sketch 3.3.2 (12043) - http://www.bohemiancoding.com/sketch -->
    <title>General_Electric@1x</title>
    <desc>Created with Sketch.</desc>
    <defs></defs>
    <g id="Page-1" stroke="none" stroke-width="1" fill="none" fill-rule="evenodd" sketch:type="MSPage">
        <g id="General_Electric" sketch:type="MSLayerGroup" fill="#29527D">
            <path d="M42.701067,19.9375484 C42.701067,9.1293911 33.1227552,0.331908474 21.3553093,0.331908474 C9.58786337,0.331908474 0.00955154639,9.1293911 0.00955154639,19.9375484 C0.00955154639,30.7876505 9.58786337,39.5431883 21.3553093,39.5431883 C33.1227552,39.5431883 42.701067,30.7876505 42.701067,19.9375484 L42.701067,19.9375484 Z M41.6822889,19.9375484 C41.6822889,30.257093 32.5907752,38.6076847 21.3553093,38.6076847 C10.1198434,38.6076847 1.01302613,30.257093 1.01302613,19.9375484 C1.01302613,9.61800379 10.1198434,1.25357926 21.3553093,1.25357926 C32.5907752,1.25357926 41.6822889,9.6740046 41.6822889,19.9375484 L41.6822889,19.9375484 Z M40.3899905,19.9375484 C40.3899905,13.7375219 36.9539828,7.32799436 29.5652908,5.27515173 C28.0295934,4.84231675 26.7372949,4.56298201 25.2472652,4.56298201 C21.826561,4.56298201 21.7048614,6.35054587 20.1086785,6.35054587 C19.2266606,6.35054587 18.6337094,5.76398753 18.6337094,5.05181781 C18.6337094,3.80909056 20.2301352,2.83141896 22.7690643,2.83141896 C25.1408692,2.83141896 26.9653905,3.37603246 27.3149426,3.52975581 L27.3759138,3.37603246 C26.7372949,3.15269853 24.4871896,2.4405288 21.3553093,2.4405288 C14.5440221,2.4405288 7.6265819,5.65220901 5.39153721,12.3830161 C4.92028553,13.7932996 4.61615816,14.9943051 4.61615816,16.3488109 C4.61615816,19.5047134 6.5621361,19.6582137 6.5621361,21.1244979 C6.5621361,21.8926685 5.92376011,22.437282 5.14838106,22.437282 C3.79511142,22.437282 2.73090853,21.0127194 2.73090853,18.6249875 C2.73090853,16.4605894 3.32385974,14.7709712 3.43025574,14.4496916 L3.26313143,14.3936908 C3.08070359,15.0500828 2.30508163,17.0609806 2.30508163,19.9375484 C2.30508163,26.2355205 5.80206058,32.5890473 13.1300242,34.6557228 C14.6657217,35.0887809 15.9733236,35.3540596 17.4480499,35.3540596 C20.8838147,35.3540596 20.9904536,33.5107181 22.5868794,33.5107181 C23.4229867,33.5107181 24.0766663,34.1111093 24.0766663,34.8652238 C24.0766663,36.0662294 22.5259082,37.0436779 19.9260078,37.0436779 C17.5695065,37.0436779 15.6691962,36.4990643 15.3801295,36.3872858 L15.3194012,36.5548421 C15.9733236,36.8201208 18.2234289,37.4207351 21.3553093,37.4207351 C28.1512929,37.4207351 35.1297043,34.2648326 37.3190813,27.4782478 C37.790333,26.123742 38.0791569,24.8807917 38.0791569,23.5682307 C38.0791569,20.3703834 36.1331789,20.258828 36.1331789,18.7925437 C36.1331789,17.9826514 36.7258872,17.4380379 37.546934,17.4380379 C38.9152642,17.4380379 39.9794671,18.9043222 39.9794671,21.2920542 C39.9794671,23.4147305 39.3867588,25.0902927 39.2650593,25.46735 L39.4474871,25.5231277 C39.6755827,24.8807917 40.3899905,22.870117 40.3899905,19.9375484 L40.3899905,19.9375484 Z M33.2291512,25.1462935 C33.2291512,27.5898032 30.9336211,30.1453145 27.5583417,30.1453145 C23.4837151,30.1453145 21.4160376,26.989412 21.4160376,24.1686219 C21.4160376,20.2028272 24.3654901,18.5272649 25.6121208,17.9266506 C25.3689647,17.7590944 25.1865368,17.5498164 25.0191696,17.2704817 C23.5901111,18.1921525 22.2978126,19.0158776 19.5764556,20.4263842 C19.4547561,22.1579473 19.2876318,24.0570665 18.8010766,25.3696275 C17.797602,28.1344167 15.7299246,30.1453145 13.0085676,30.1453145 C10.7127946,30.1453145 9.58786337,28.6232525 9.58786337,26.989412 C9.58786337,25.8024624 10.3479389,24.2804005 11.7162691,23.1353957 C13.4341516,21.7248892 15.3194012,20.8592192 17.9193016,19.602436 C17.9800299,19.2813795 18.0407582,18.9600999 18.1017294,18.5692098 C17.4480499,19.1136002 16.5053036,19.3371572 15.7299246,19.3371572 C14.4983544,19.3371572 13.4798192,18.3597087 13.2517237,17.3262594 C11.5945696,17.2144809 10.3479389,16.1252539 10.2869677,14.3936908 C10.2869677,13.1509636 10.8191906,12.0617366 11.7162691,12.0617366 C12.0658213,12.0617366 12.1875208,12.3270153 12.1875208,12.5505724 C12.1875208,12.7600734 11.8833935,13.4722431 11.8833935,14.1703569 C11.8833935,14.8825266 12.2482491,15.8041974 13.1909954,15.8041974 C13.1909954,12.9834073 15.4411007,9.33889215 18.1017294,9.33889215 C19.8652795,9.33889215 20.1086785,10.5396746 20.1086785,11.0842881 C20.1086785,13.6397994 17.3263503,16.4605894 15.076245,17.1587032 C15.1369733,17.3820371 15.3801295,17.9826514 16.0947802,17.9826514 C16.9765553,17.9826514 18.0407582,17.2144809 18.5729811,16.6140897 C18.8010766,15.4831409 19.6981552,13.8493004 20.8838147,13.8493004 C21.3553093,13.8493004 21.5834048,14.1703569 21.5834048,14.5614702 C21.5834048,15.3713624 20.6406585,16.4045886 19.9260078,17.1029255 C19.8196118,17.647539 19.7588835,18.2479302 19.7588835,18.7365429 C21.826561,17.5915382 22.8907638,17.0049798 24.4264613,15.9717536 C24.3047618,15.5946964 24.3047618,15.1478054 24.3047618,14.7149704 C24.3047618,12.1735151 26.1443437,9.33889215 28.5618163,9.33889215 C29.9301465,9.33889215 30.6294937,10.2186181 30.6294937,11.1960666 C30.6294937,13.0394082 28.9113684,14.6591927 26.4941388,16.3488109 C26.6765666,16.7816459 26.9653905,17.1587032 27.4366422,17.3820371 C27.4973705,17.2704817 28.2729924,17.1587032 28.9113684,17.1587032 C29.6260191,17.1587032 30.6294937,17.3262594 30.6294937,17.9826514 C30.6294937,18.7365429 29.5043196,18.9043222 28.6225446,18.9043222 C28.1512929,18.9600999 27.3759138,18.7925437 27.3759138,18.7925437 C26.0836154,19.1136002 23.5901111,20.4821619 23.5901111,23.945288 C23.5901111,26.2912982 25.1865368,28.4556963 27.6800412,28.4556963 C29.5652908,28.4556963 31.1007454,27.1569682 31.1614737,25.1462935 C31.1614737,23.8475655 30.5685225,22.4790037 29.1547675,22.4790037 C28.4401167,22.4790037 27.8014978,22.9678395 27.8014978,23.6800092 C27.7407695,24.7692363 28.6225446,24.8807917 28.6225446,25.5791285 C28.6225446,26.0677412 28.2120212,26.2912982 27.8014978,26.2912982 C26.6155954,26.2912982 25.7187597,25.2020712 25.7187597,23.8475655 C25.7187597,22.213725 27.2695178,20.8592192 29.2762241,20.8592192 C31.8761245,20.8592192 33.2291512,22.9258947 33.2291512,25.1462935 L33.2291512,25.1462935 Z M28.8657007,11.4613454 C28.8657007,11.1960666 28.8049724,10.8609541 28.4401167,10.8609541 C27.5583417,10.8609541 26.1443437,12.6063501 26.1443437,14.8267489 C27.9078938,13.4162423 28.8657007,12.2154599 28.8657007,11.4613454 L28.8657007,11.4613454 Z M18.3905532,11.2380114 C18.3905532,10.9725096 18.2234289,10.8609541 17.9800299,10.8609541 C16.7333991,10.8609541 14.969849,13.8493004 14.969849,15.6366412 C16.915827,14.6591927 18.3905532,12.4387938 18.3905532,11.2380114 L18.3905532,11.2380114 Z M17.691206,21.4038327 C15.0305773,22.5907822 11.6552979,24.7132354 11.6552979,27.0454128 C11.6552979,27.9110828 12.1267925,28.4556963 13.0085676,28.4556963 C15.608225,28.4556963 17.2046508,24.6574577 17.691206,21.4038327 L17.691206,21.4038327 Z" id="Fill-2" sketch:type="MSShapeGroup"></path>
        </g>
    </g>
</svg>