<?xml version="1.0" encoding="utf-8"?>
<!-- Generator: Adobe Illustrator 18.1.1, SVG Export Plug-In . SVG Version: 6.00 Build 0)  -->
<!DOCTYPE svg PUBLIC "-//W3C//DTD SVG 1.1//EN" "http://www.w3.org/Graphics/SVG/1.1/DTD/svg11.dtd">
<svg version="1.1" id="Layer_1" xmlns:sketch="http://www.bohemiancoding.com/sketch/ns"
	 xmlns="http://www.w3.org/2000/svg" xmlns:xlink="http://www.w3.org/1999/xlink" x="0px" y="0px" viewBox="-454 455 91 90"
	 enable-background="new -454 455 91 90" xml:space="preserve">
<title>Group</title>
<desc>Created with Sketch.</desc>
<g id="Page-1" sketch:type="MSPage">
	<g id="Group" sketch:type="MSLayerGroup">
		<path id="Shape" sketch:type="MSShapeGroup" fill="#363636" d="M-407,478.5c3.3,0,6-2.7,6-6c0-3.3-2.7-6-6-6c-3.3,0-6,2.7-6,6
			C-413,475.9-410.3,478.5-407,478.5L-407,478.5z M-407,468.5c2.2,0,4,1.8,4,4c0,2.2-1.8,4-4,4c-2.2,0-4-1.8-4-4
			C-411,470.3-409.2,468.5-407,468.5L-407,468.5z"/>
		<path id="Shape_1_" sketch:type="MSShapeGroup" fill="#363636" d="M-389.1,494.9l-10.3-3.7l-5.8-4.9c0.1-0.8,0.2-1.3,0.2-1.3
			c0.1-1.5-0.9-2.9-2.4-3.2c0,0-3-0.6-4.4-0.8c0,0-0.1,0-0.1,0c0,0,0,0,0,0l0,0c0,0,0,0,0,0c-0.3-0.1-0.5-0.1-0.6-0.1
			c-0.1,0-0.3,0-0.4,0v0c-0.2,0-0.4,0-0.5,0.1v0c-0.3,0.1-0.6,0.1-0.9,0.3l-11.2,5.9c-0.9,0.5-1.6,1.5-1.6,2.5
			c0,1.1,0.5,2.1,1.4,2.7l9.2,5.7c-0.1,4.4-0.2,8.9-0.2,9.2l-2.5,13.6l-16.8-0.5h0h0l-0.1,0v0c-1.3,0-2.4,1-2.5,2.3
			c-0.1,1.3,0.9,2.5,2.1,2.6v0l19.5,2.5l0.5,0.1l0.1,0c0,0,0.1,0,0.1,0c1.4,0,2.7-0.8,3.2-2.1c0.1-0.1,0.1-0.2,0.1-0.4h0h0l1.7-5.5
			l10.2,23.5h0c0.4,0.9,1.3,1.6,2.3,1.6c0.3,0,0.6,0,0.9-0.2c0.6-0.2,1.1-0.7,1.4-1.3c0.3-0.6,0.3-1.2,0.1-1.9h0l-11.1-35.4
			c0.3-2.4,1-8,1.6-12.8l3.3,2.7c0.3,0.2,0.6,0.4,0.9,0.5l10.8,3.9c0.3,0.1,0.7,0.2,1,0.2c1.3,0,2.4-0.8,2.8-2
			c0.3-0.8,0.2-1.6-0.1-2.3C-387.8,495.7-388.4,495.2-389.1,494.9L-389.1,494.9z M-414.2,521.9l-0.9,3c0,0,0,0.1,0,0.1
			c-0.2,0.6-0.8,0.9-1.4,0.9l-0.4,0l-2.9-0.4l-14.3-1.9l-2.4-0.3h0c-0.3,0-0.5-0.3-0.5-0.5c0-0.3,0.2-0.5,0.5-0.5l0,0l2.4,0.1
			l14.2,0.4h0.1l1.9,0.1l0.3-1.8l0-0.1l1.9-10.2l2.8,6.4L-414.2,521.9L-414.2,521.9z M-407.1,484.9l-2.7,21.5
			c0,0,11.2,35.9,11.2,35.9c0.1,0.2,0,0.3,0,0.4c-0.1,0.1-0.1,0.2-0.3,0.3c-0.2,0.1-0.5,0-0.6-0.3c0,0-15.4-35.6-15.4-35.6l0.2-8.5
			c1,0,1.9-0.5,2.4-1.4c0.4-0.7,0.6-1.5,0.4-2.3c-0.2-0.8-0.6-1.5-1.3-1.9l-1.3-0.8l0-1h0l0.1-3.3l1.4-0.7c0,0,0,0,0,0l0.1-0.1l0,0
			c0.3-0.2,0.5-0.5,0.5-0.9c0-0.6-0.4-1-1-1c-0.2,0-0.3,0-0.4,0.1l0,0l-8.4,4.4l5.7,3.5l2,1.2l0.3,0.2c0.5,0.3,0.6,0.9,0.3,1.4
			c-0.2,0.3-0.4,0.4-0.7,0.4c-0.1,0-0.1,0-0.2,0c-0.2,0-0.4-0.1-0.5-0.2l-1.3-0.8l-8.2-5.1c-0.3-0.2-0.5-0.5-0.5-0.9
			c0-0.4,0.2-0.7,0.5-0.9l11.2-5.9c0,0,0.2-0.1,0.4-0.1c0.1,0,0.2,0,0.3,0l5,0.9C-407.4,483.9-407.1,484.4-407.1,484.9L-407.1,484.9
			L-407.1,484.9z M-416.5,489c0,0.4,0,1.4-0.1,2l-1.7-1.1L-416.5,489L-416.5,489z M-389.2,498.1c-0.1,0.4-0.5,0.7-0.9,0.7
			c-0.1,0-0.2,0-0.3-0.1l-10.8-3.9c-0.1,0-0.2-0.1-0.3-0.2l-4.2-3.6c0.1-0.8,0.2-1.6,0.3-2.4l5.1,4.3l10.6,3.8
			C-389.3,497-389,497.6-389.2,498.1L-389.2,498.1z"/>
		<path id="Shape_2_" sketch:type="MSShapeGroup" fill="#363636" d="M-421.2,469c0-2.1-1.4-3.9-3.3-4.5c1.1-2.2,0.8-5-1.1-6.9
			c-1.1-1.1-2.6-1.8-4.2-1.8s-3.1,0.6-4.2,1.8c-1,1-1.5,2.3-1.7,3.6c-0.4,0.2-0.9,0.3-1.3,0.6c-1.5-2.6-4.3-4.3-7.4-4.3
			c-4.7,0-8.6,3.8-8.6,8.6c0,1.1,0.2,2.2,0.7,3.3c0.2,0.4,0.5,0.6,0.9,0.6h29.2C-421.7,470-421.2,469.6-421.2,469L-421.2,469z
			 M-444.5,459.5c2.7,0,5.1,1.6,6.1,4.2c0.1,0.3,0.4,0.5,0.7,0.6c0.3,0.1,0.7,0,0.9-0.3c0.8-0.8,1.8-1.2,3-1.2
			c2.1,0,3.8,1.6,4.1,3.6c0.1,0.4,0.3,0.7,0.7,0.8c0.4,0.1,0.8,0,1-0.2c0.5-0.5,1.2-0.8,1.9-0.8c1.2,0,2.2,0.7,2.6,1.8h-27.4
			c-0.2-0.6-0.3-1.3-0.3-1.9C-451.1,462.5-448.1,459.5-444.5,459.5L-444.5,459.5z M-429.9,457.8c1.1,0,2.1,0.4,2.8,1.2
			c1.4,1.4,1.5,3.7,0.3,5.3c-0.5,0.1-0.9,0.2-1.3,0.4c-0.9-2.3-3.1-3.9-5.7-3.9c0.2-0.7,0.5-1.3,1-1.8
			C-432,458.2-430.9,457.8-429.9,457.8L-429.9,457.8z"/>
		<path id="Shape_3_" sketch:type="MSShapeGroup" fill="#363636" d="M-368,470c-0.5,0-1,0.1-1.4,0.2c-0.8-2.6-3.2-4.5-6-4.5
			c-2.9,0-5.3,1.9-6,4.5c-0.7-0.4-1.5-0.6-2.4-0.6c-2.9,0-5.3,2.4-5.3,5.3c0,0.6,0.4,1,1,1h24.2c0.6,0,1-0.4,1-1
			C-363,472.2-365.2,470-368,470L-368,470z M-387,474c0.4-1.4,1.7-2.3,3.2-2.3c0.9,0,1.8,0.4,2.4,1c0.3,0.3,0.7,0.4,1.1,0.2
			c0.4-0.2,0.6-0.5,0.6-0.9c0,0,0,0,0,0c0-2.4,1.9-4.3,4.3-4.3c2.2,0,4.1,1.8,4.3,4c0,0.4,0.2,0.7,0.5,0.8c0.3,0.2,0.7,0.1,1-0.1
			c0.5-0.3,1-0.5,1.6-0.5c1.3,0,2.4,0.8,2.8,2L-387,474L-387,474z"/>
	</g>
</g>
</svg>
