<?xml version="1.0" encoding="utf-8"?>
<!-- Generator: Adobe Illustrator 18.1.1, SVG Export Plug-In . SVG Version: 6.00 Build 0)  -->
<!DOCTYPE svg PUBLIC "-//W3C//DTD SVG 1.1//EN" "http://www.w3.org/Graphics/SVG/1.1/DTD/svg11.dtd">
<svg version="1.1" xmlns="http://www.w3.org/2000/svg" xmlns:xlink="http://www.w3.org/1999/xlink" x="0px" y="0px"
	 viewBox="0 0 129.2 119.4" enable-background="new 0 0 129.2 119.4" xml:space="preserve">
<g id="Layer_1">
</g>
<g id="Layer_2">
	<path fill="#231F20" d="M74.6,57.9H54.7c-1.1,0-1.9,0.9-1.9,1.9v11.5c0,1.1,0.9,1.9,1.9,1.9h19.9c1.1,0,1.9-0.9,1.9-1.9V59.8
		C76.5,58.7,75.6,57.9,74.6,57.9z M75.4,71.5l-6.9-6l6.9-6L75.4,71.5z M74.6,58.9l-9.4,8.2c-0.4,0.3-0.9,0.3-1.3,0l-9.4-8.2
		L74.6,58.9z M53.8,59.6l6.9,6l-6.9,6L53.8,59.6z M54.5,72.2l6.9-6l1.9,1.6c0.7,0.6,1.9,0.7,2.6,0l1.9-1.6l6.9,6L54.5,72.2z"/>
</g>
</svg>
