<?xml version="1.0" encoding="utf-8"?>
<!-- Generator: Adobe Illustrator 18.1.1, SVG Export Plug-In . SVG Version: 6.00 Build 0)  -->
<!DOCTYPE svg PUBLIC "-//W3C//DTD SVG 1.1//EN" "http://www.w3.org/Graphics/SVG/1.1/DTD/svg11.dtd">
<svg version="1.1" xmlns="http://www.w3.org/2000/svg" xmlns:xlink="http://www.w3.org/1999/xlink" x="0px" y="0px"
	 viewBox="0 0 283.9 214.5" enable-background="new 0 0 283.9 214.5" xml:space="preserve">
<g id="Layer_1">
</g>
<g id="Layer_2">
	<path fill="#FFFFFF" d="M233.7,37.4H56.9c-9.4,0-17.1,7.6-17.1,17.1v102c0,9.4,7.6,17.1,17.1,17.1h176.8c9.4,0,17.1-7.6,17.1-17.1
		v-102C250.8,45,243.1,37.4,233.7,37.4z M241.5,158.6l-61.2-53.2l61.1-53.4L241.5,158.6z M234.4,46.4l-83.2,72.7
		c-3.3,2.9-8.3,2.9-11.7,0L55.6,46.5L234.4,46.4z M49,52.6l61.1,52.9l-61,53L49,52.6z M55.8,164.5l61.1-53.1l16.8,14.5
		c6.6,5.7,16.6,5.8,23.3-0.1l16.5-14.4l61.1,53.1L55.8,164.5z"/>
</g>
</svg>
