<?xml version="1.0" encoding="UTF-8" standalone="no"?>
<svg width="49px" height="45px" viewBox="0 0 49 45" version="1.1" xmlns="http://www.w3.org/2000/svg" xmlns:xlink="http://www.w3.org/1999/xlink" xmlns:sketch="http://www.bohemiancoding.com/sketch/ns">
    <!-- Generator: Sketch 3.3.2 (12043) - http://www.bohemiancoding.com/sketch -->
    <title>pulseband</title>
    <desc>Created with Sketch.</desc>
    <defs>
        <linearGradient x1="-0.0255868545%" y1="49.9488282%" x2="101.475639%" y2="49.9488282%" id="linearGradient-1">
            <stop stop-color="#2AFF8F" offset="0%"></stop>
            <stop stop-color="#52A34A" offset="100%"></stop>
        </linearGradient>
        <linearGradient x1="102.65475%" y1="0.87561446%" x2="3.85092969%" y2="99.5136288%" id="linearGradient-2">
            <stop stop-color="#2AFF8F" offset="0%"></stop>
            <stop stop-color="#52A34A" offset="100%"></stop>
        </linearGradient>
        <linearGradient x1="95.3068743%" y1="100.840005%" x2="8.41089721%" y2="-0.708951522%" id="linearGradient-3">
            <stop stop-color="#2AFF8F" offset="0%"></stop>
            <stop stop-color="#52A34A" offset="100%"></stop>
        </linearGradient>
    </defs>
    <g id="Page-1" stroke="none" stroke-width="1" fill="none" fill-rule="evenodd" sketch:type="MSPage">
        <g id="pulseband" sketch:type="MSLayerGroup" transform="translate(-7.000000, -8.000000)">
            <g id="Layer_4" transform="translate(5.700000, 7.714286)" sketch:type="MSShapeGroup">
                <path d="M47.5959845,37.8503571 C44.8518135,42.61875 31.0571244,37.7271429 27.7099741,37.9366071 C24.3505181,38.13375 9.04222798,45.6744643 1.99106218,41.5960714 C5.27668394,48.0278571 23.1937824,42.5571429 28.3129534,42.5571429 C33.4321244,42.5571429 45.6639896,47.6458929 49.1095855,41.6576786 C49.1341969,41.6207143 49.1588083,41.58375 49.171114,41.5344643 C49.1465026,40.0805357 48.678886,38.5896429 47.9159326,37.1110714 C47.8297927,37.3575 47.7313472,37.5916071 47.5959845,37.8503571 L47.5959845,37.8503571 Z" id="Shape" fill="url(#linearGradient-1)"></path>
                <path d="M6.02733161,42.27375 C3.28316062,37.5053571 14.3952073,27.9932143 15.8965026,24.9867857 C17.3977979,21.9803571 18.4683938,4.87821429 25.5195596,0.799821429 C18.3084197,0.430178571 14.1490933,18.7521429 11.5895078,23.1878571 C9.02992228,27.6235714 -1.47914508,35.6941071 1.96645078,41.67 C1.99106218,41.7069643 2.01567358,41.7439286 2.04028497,41.7808929 C3.30777202,42.4832143 4.83367876,42.8282143 6.49494819,42.9021429 C6.33497409,42.7296429 6.175,42.5201786 6.02733161,42.27375 L6.02733161,42.27375 Z" id="Shape" fill="url(#linearGradient-2)"></path>
                <path d="M23.046114,4.01571429 C28.5467617,4.01571429 31.2170984,18.4071429 33.0629534,21.2164286 C34.9088083,24.0257143 49.0972798,33.5008929 49.0972798,41.6576786 C53.0227979,35.5955357 39.3265544,22.8182143 36.7669689,18.3825 C34.2073834,13.9467857 32.4845855,0.7875 25.5933938,0.7875 L25.4580311,0.7875 C24.2151554,1.53910714 23.1568653,2.685 22.2585492,4.08964286 C22.5046632,4.04035714 22.7630829,4.01571429 23.046114,4.01571429 L23.046114,4.01571429 Z" id="Shape" fill="url(#linearGradient-3)"></path>
            </g>
        </g>
    </g>
</svg>