<?xml version="1.0" encoding="utf-8"?>
<!-- Generator: Adobe Illustrator 18.1.1, SVG Export Plug-In . SVG Version: 6.00 Build 0)  -->
<!DOCTYPE svg PUBLIC "-//W3C//DTD SVG 1.1//EN" "http://www.w3.org/Graphics/SVG/1.1/DTD/svg11.dtd">
<svg version="1.1" id="Layer_1" xmlns:sketch="http://www.bohemiancoding.com/sketch/ns"
	 xmlns="http://www.w3.org/2000/svg" xmlns:xlink="http://www.w3.org/1999/xlink" x="0px" y="0px" viewBox="0 0 999 999"
	 enable-background="new 0 0 999 999" xml:space="preserve">
<title>Twitter</title>
<desc>Created with Sketch.</desc>
<g id="Page-1" sketch:type="MSPage">
	<g id="_x36_80x680" transform="translate(-124.000000, -364.000000)" sketch:type="MSArtboardGroup">
		<g id="Row-5" transform="translate(42.000000, 364.000000)" sketch:type="MSLayerGroup">
			<path id="Twitter" sketch:type="MSShapeGroup" fill="#FAFAFA" d="M1071.8,499.6c0,270-220.9,490.9-490.9,490.9S90,769.6,90,499.6
				S310.9,8.7,580.9,8.7S1071.8,229.7,1071.8,499.6L1071.8,499.6z M807.2,368.7c-16.4,8.2-32.7,10.9-49,13.7
				c19.1-10.9,32.7-27.3,38.1-49c-16.4,10.9-35.5,16.4-54.5,21.8c-16.4-16.4-38.1-27.3-62.7-27.3c-49,0-87.3,38.1-87.3,87.3
				c0,5.5,0,13.7,2.8,19.1c-71-2.8-136.4-38.1-177.3-90c-8.2,13.7-10.9,27.3-10.9,43.6c0,30,16.4,57.3,38.1,71
				c-13.7,0-27.3-5.5-38.1-10.9l0,0c0,40.9,30,76.4,68.2,84.5c-8.2,2.8-13.7,2.8-21.8,2.8c-5.5,0-10.9,0-16.4-2.8
				c10.9,35.5,43.6,60,81.8,60c-30,24.6-65.5,38.1-106.3,38.1c-8.2,0-13.7,0-21.8,0c38.1,24.6,84.5,38.1,133.7,38.1
				c158.1,0,245.5-130.9,245.5-245.5c0-2.8,0-8.2,0-10.9C780,401.4,796.3,385,807.2,368.7L807.2,368.7z"/>
		</g>
	</g>
</g>
</svg>
