<?xml version="1.0" encoding="utf-8"?>
<!-- Generator: Adobe Illustrator 18.1.1, SVG Export Plug-In . SVG Version: 6.00 Build 0)  -->
<!DOCTYPE svg PUBLIC "-//W3C//DTD SVG 1.1//EN" "http://www.w3.org/Graphics/SVG/1.1/DTD/svg11.dtd">
<svg version="1.1" id="Layer_1" xmlns:sketch="http://www.bohemiancoding.com/sketch/ns"
	 xmlns="http://www.w3.org/2000/svg" xmlns:xlink="http://www.w3.org/1999/xlink" x="0px" y="0px" viewBox="-481 482 36 36"
	 enable-background="new -481 482 36 36" xml:space="preserve">
<title>Twitter</title>
<desc>Created with Sketch.</desc>
<g id="Page-1" sketch:type="MSPage">
	<g id="_x36_80x680" transform="translate(-124.000000, -364.000000)" sketch:type="MSArtboardGroup">
		<g id="Row-5" transform="translate(42.000000, 364.000000)" sketch:type="MSLayerGroup">
			<path id="Twitter" sketch:type="MSShapeGroup" fill="#FDFDFD" d="M-363,500c0,9.9-8.1,18-18,18s-18-8.1-18-18s8.1-18,18-18
				S-363,490.1-363,500L-363,500z M-372.7,495.2c-0.6,0.3-1.2,0.4-1.8,0.5c0.7-0.4,1.2-1,1.4-1.8c-0.6,0.4-1.3,0.6-2,0.8
				c-0.6-0.6-1.4-1-2.3-1c-1.8,0-3.2,1.4-3.2,3.2c0,0.2,0,0.5,0.1,0.7c-2.6-0.1-5-1.4-6.5-3.3c-0.3,0.5-0.4,1-0.4,1.6
				c0,1.1,0.6,2.1,1.4,2.6c-0.5,0-1-0.2-1.4-0.4c0,0,0,0,0,0c0,1.5,1.1,2.8,2.5,3.1c-0.3,0.1-0.5,0.1-0.8,0.1c-0.2,0-0.4,0-0.6-0.1
				c0.4,1.3,1.6,2.2,3,2.2c-1.1,0.9-2.4,1.4-3.9,1.4c-0.3,0-0.5,0-0.8,0c1.4,0.9,3.1,1.4,4.9,1.4c5.8,0,9-4.8,9-9c0-0.1,0-0.3,0-0.4
				C-373.7,496.4-373.1,495.8-372.7,495.2L-372.7,495.2z"/>
		</g>
	</g>
</g>
</svg>
