<?xml version="1.0" encoding="utf-8"?>
<!-- Generator: Adobe Illustrator 18.1.1, SVG Export Plug-In . SVG Version: 6.00 Build 0)  -->
<!DOCTYPE svg PUBLIC "-//W3C//DTD SVG 1.1//EN" "http://www.w3.org/Graphics/SVG/1.1/DTD/svg11.dtd">
<svg version="1.1" id="Layer_1" xmlns:sketch="http://www.bohemiancoding.com/sketch/ns"
	 xmlns="http://www.w3.org/2000/svg" xmlns:xlink="http://www.w3.org/1999/xlink" x="0px" y="0px" viewBox="-449 457 100 86"
	 enable-background="new -449 457 100 86" xml:space="preserve">
<title>Group</title>
<desc>Created with Sketch.</desc>
<g id="Page-1" sketch:type="MSPage">
	<g id="Group" sketch:type="MSLayerGroup">
		<path id="Shape" sketch:type="MSShapeGroup" fill="#262B30" d="M-351,542.9h-96c-1.1,0-2-0.9-2-2c0-1.1,0.9-2,2-2h96
			c1.1,0,2,0.9,2,2C-349,542-349.9,542.9-351,542.9L-351,542.9z"/>
		<g id="Shape_1_" transform="translate(2.000000, 19.000000)" sketch:type="MSShapeGroup">
			<path fill="none" d="M-422.6,501.9c1.6,1.3,3.6,2,5.7,2c2.1,0,4.1-0.8,5.7-2c1.3-1,2.4-2.4,3.1-4c0.7-1.5,1.1-3.2,1.1-5
				c0-6.1-4.5-11-9.9-11c-5.5,0-9.9,4.9-9.9,11c0,1.8,0.4,3.5,1.1,5C-425,499.5-423.9,500.9-422.6,501.9L-422.6,501.9z"/>
			<path fill="none" d="M-408.4,509.7L-408.4,509.7h-17.2c-1.4,0-2.8,0.6-3.9,1.7c-0.7,0.7-1.2,1.6-1.4,2.5h27.9
				C-403.4,511.5-405.6,509.7-408.4,509.7L-408.4,509.7z"/>
			<path fill="none" d="M-385,477.9c7.7,0,13.9,6.7,13.9,15c0,1.8-0.3,3.4-0.8,5h5l0,0l1.7-30.4c-5.2,6.3-18.8,10.5-35.7,10.5
				c-16.9,0-30.5-4.3-35.7-10.6l1.7,30.4l0,0h5c-0.5-1.6-0.8-3.3-0.8-5c0-8.3,6.2-15,13.9-15c7.7,0,13.9,6.7,13.9,15
				c0,1.8-0.3,3.4-0.8,5h5.7c-0.5-1.6-0.8-3.3-0.8-5C-399,484.6-392.7,477.9-385,477.9L-385,477.9z"/>
			<path fill="none" d="M-376.2,497.9c0.7-1.5,1.1-3.2,1.1-5c0-6.1-4.5-11-9.9-11c-5.5,0-9.9,4.9-9.9,11c0,1.8,0.4,3.5,1.1,5"/>
			<path fill="none" d="M-376.3,509.7h-17.1c-1.4,0-2.8,0.6-3.9,1.7c-0.7,0.7-1.2,1.6-1.4,2.5h27.9
				C-371.3,511.5-373.6,509.7-376.3,509.7L-376.3,509.7z"/>
			<path fill="none" d="M-424.1,505.7c-1.5-1-2.9-2.3-3.9-3.8h-10.6l-5.3,12h9.1c0.3-2,1.2-3.9,2.6-5.3c1.8-1.8,4.2-2.8,6.7-2.9
				H-424.1L-424.1,505.7z"/>
			<path fill="none" d="M-390.8,501.9c1.6,1.3,3.6,2,5.7,2c2.1,0,4.1-0.8,5.7-2"/>
			<path fill="none" d="M-373.9,501.9c-1.1,1.5-2.4,2.8-3.9,3.8h1.5h0.1c4.9,0,9,3.6,9.4,8.2h8.8l-5.3-12H-373.9L-373.9,501.9z"/>
			<path fill="none" d="M-396.2,501.9h-9.6c-1.1,1.5-2.4,2.8-3.9,3.8h1.3h0.1c3.1,0,5.8,1.4,7.6,3.6c0.2-0.3,0.4-0.5,0.6-0.8
				c1.8-1.8,4.2-2.8,6.7-2.9h1.2C-393.8,504.7-395.1,503.4-396.2,501.9L-396.2,501.9z"/>
			<path fill="#262B30" d="M-353,515.9c0-0.2-0.1-0.3-0.1-0.5c0-0.1,0-0.2-0.1-0.3c0,0,0,0,0,0l-8-18c0,0,0-0.1-0.1-0.1l-1.8-35.1h0
				c0,0,0-0.1,0-0.1c0,0,0,0,0,0c1.2-0.3,2-1,2-1.9c0-1.1-1.3-2-3-2c-1.7,0-3,0.9-3,2c0,0.7,0.6,1.3,1.4,1.7
				c-0.1,4.9-8.4,9.2-20.4,11.1c-4.4,0.8-9.5,1.3-15,1.3c-5.6,0-10.6-0.5-15.1-1.4c-12-2-20.3-6.2-20.4-11.1c0.8-0.4,1.4-1,1.4-1.7
				c0-1.1-1.3-2-3-2c-1.7,0-3,0.9-3,2c0,0.9,0.9,1.6,2,1.9c0,0,0,0,0,0c0,0,0,0.1,0,0.1h-0.1l-1.8,35.1c0,0,0,0.1-0.1,0.1l-8,18
				c0,0,0,0,0,0c-0.1,0.1-0.1,0.3-0.1,0.4c0,0.1-0.1,0.3-0.1,0.4c0,0,0,0,0,0c0,0.1,0,0.2,0.1,0.3c0,0.2,0,0.3,0.1,0.5
				c0,0.1,0.1,0.2,0.2,0.3c0.1,0.1,0.1,0.2,0.2,0.3c0.1,0.1,0.3,0.2,0.4,0.3c0.1,0,0.1,0.1,0.2,0.2c0,0,0,0,0,0
				c0.2,0.1,0.5,0.2,0.8,0.2c0,0,0,0,0,0h0h0h92h0h0c0,0,0,0,0.1,0c0.3,0,0.5-0.1,0.7-0.2c0,0,0,0,0,0c0.1,0,0.2-0.1,0.2-0.2
				c0.1-0.1,0.3-0.2,0.4-0.3c0.1-0.1,0.2-0.2,0.2-0.4c0.1-0.1,0.1-0.2,0.2-0.3c0.1-0.2,0.1-0.4,0.1-0.6C-353,516-353,516-353,515.9
				C-353,515.9-353,515.9-353,515.9L-353,515.9z M-401,478c16.9,0,30.5-4.3,35.7-10.5l-1.7,30.4l0,0h-5c0.5-1.6,0.8-3.3,0.8-5
				c0-8.3-6.2-15-13.9-15c-7.7,0-13.9,6.7-13.9,15c0,1.8,0.3,3.4,0.8,5h-5.7c0.5-1.6,0.8-3.3,0.8-5c0-8.3-6.2-15-13.9-15
				c-7.7,0-13.9,6.7-13.9,15c0,1.8,0.3,3.4,0.8,5h-5l0,0l-1.7-30.4C-431.5,473.8-417.9,478-401,478L-401,478z M-379.3,501.9
				c-1.6,1.3-3.6,2-5.7,2c-2.1,0-4.1-0.8-5.7-2c-1.3-1-2.4-2.4-3.1-4c-0.7-1.5-1.1-3.2-1.1-5c0-6.1,4.5-11,9.9-11
				c5.5,0,9.9,4.9,9.9,11c0,1.8-0.4,3.5-1.1,5C-377,499.5-378,500.9-379.3,501.9L-379.3,501.9z M-407,492.9c0,1.8-0.4,3.5-1.1,5
				c-0.7,1.6-1.8,3-3.1,4c-1.6,1.3-3.6,2-5.7,2s-4.1-0.8-5.7-2c-1.3-1-2.4-2.4-3.1-4c-0.7-1.5-1.1-3.2-1.1-5c0-6.1,4.5-11,9.9-11
				C-411.4,481.9-407,486.8-407,492.9L-407,492.9z M-434.9,513.9h-9.1l5.3-12h10.6c1.1,1.5,2.4,2.8,3.9,3.8h-1.5
				c-2.5,0-4.9,1-6.7,2.9C-433.7,510-434.6,511.9-434.9,513.9L-434.9,513.9z M-430.8,513.9c0.2-0.9,0.7-1.8,1.4-2.5
				c1.1-1.1,2.4-1.7,3.9-1.7h17.1h0c2.7,0,5,1.8,5.4,4.2H-430.8L-430.8,513.9z M-400.8,509.3c-1.7-2.2-4.5-3.6-7.6-3.6h-0.1h-1.3
				c1.5-1,2.9-2.3,3.9-3.8h9.6c1.1,1.5,2.4,2.8,3.9,3.8h-1.2c-2.5,0-4.9,1-6.7,2.9C-400.4,508.8-400.6,509.1-400.8,509.3
				L-400.8,509.3z M-398.8,513.9c0.2-0.9,0.7-1.8,1.4-2.5c1.1-1.1,2.4-1.7,3.9-1.7h17.1c2.7,0,5,1.8,5.5,4.2H-398.8L-398.8,513.9z
				 M-366.9,513.9c-0.4-4.6-4.5-8.2-9.4-8.2h-0.1h-1.5c1.5-1,2.9-2.3,3.9-3.8h10.5l5.3,12H-366.9L-366.9,513.9z"/>
		</g>
		<path id="Shape_2_" sketch:type="MSShapeGroup" fill="#262B30" d="M-376,470.9c-6.1,0-11-4.9-11-11c0-1,0.1-1.9,0.4-2.8
			c-2.6,2-4.4,5.2-4.4,8.8c0,6.1,4.9,11,11,11c5.1,0,9.4-3.5,10.6-8.2C-371.2,470-373.5,470.9-376,470.9L-376,470.9z"/>
		<path id="Shape_3_" sketch:type="MSShapeGroup" fill="#262B30" d="M-406.8,466.2l1.1,2.3l2.5,0.4l-1.8,1.8l0.4,2.5l-2.2-1.2
			l-2.2,1.2l0.4-2.5l-1.8-1.8l2.5-0.4L-406.8,466.2z"/>
		<path id="Shape_4_" sketch:type="MSShapeGroup" fill="#262B30" d="M-392.6,476.6l1.6,3.3l3.7,0.5l-2.6,2.6l0.6,3.6l-3.3-1.7
			l-3.3,1.7l0.6-3.6l-2.6-2.6l3.7-0.5L-392.6,476.6z"/>
	</g>
</g>
</svg>
