<?xml version="1.0" encoding="UTF-8" standalone="no"?>
<svg width="100px" height="86px" viewBox="0 0 100 86" version="1.1" xmlns="http://www.w3.org/2000/svg" xmlns:xlink="http://www.w3.org/1999/xlink" xmlns:sketch="http://www.bohemiancoding.com/sketch/ns">
    <!-- Generator: Sketch 3.3.2 (12043) - http://www.bohemiancoding.com/sketch -->
    <title>Group</title>
    <desc>Created with Sketch.</desc>
    <defs></defs>
    <g id="Page-1" stroke="none" stroke-width="1" fill="none" fill-rule="evenodd" sketch:type="MSPage">
        <g id="Group" sketch:type="MSLayerGroup">
            <path d="M98.01,85.883 L1.99,85.883 C0.89,85.883 0,84.993 0,83.893 C0,82.793 0.89,81.903 1.99,81.903 L98.01,81.903 C99.11,81.903 100,82.793 100,83.893 C100,84.993 99.11,85.883 98.01,85.883 L98.01,85.883 Z" id="Shape" fill="#262B30" sketch:type="MSShapeGroup"></path>
            <g transform="translate(2.000000, 19.000000)" id="Shape" sketch:type="MSShapeGroup">
                <path d="M26.385,44.879 C28.002,46.146 29.97,46.899 32.097,46.899 C34.224,46.899 36.192,46.147 37.809,44.879 C39.117,43.854 40.19,42.489 40.927,40.898 C41.624,39.393 42.025,37.692 42.025,35.887 C42.025,29.815 37.572,24.874 32.096,24.874 C26.62,24.874 22.167,29.815 22.167,35.887 C22.167,37.693 22.568,39.393 23.265,40.898 C24.004,42.489 25.077,43.854 26.385,44.879 L26.385,44.879 Z"></path>
                <path d="M40.627,52.687 L40.582,52.687 L23.452,52.687 C22.016,52.699 20.635,53.295 19.58,54.366 C18.867,55.089 18.385,55.976 18.155,56.901 L46.047,56.901 C45.626,54.515 43.364,52.687 40.627,52.687 L40.627,52.687 Z"></path>
                <path d="M63.951,20.893 C71.621,20.893 77.861,27.618 77.861,35.887 C77.861,37.646 77.564,39.328 77.045,40.898 L82.022,40.898 L82.008,40.888 L83.696,10.507 C78.498,16.767 64.894,21.022 48.015,21.022 C31.102,21.022 17.479,16.749 12.307,10.467 L13.995,40.887 L13.981,40.897 L19.006,40.897 C18.487,39.327 18.19,37.645 18.19,35.886 C18.19,27.617 24.43,20.892 32.1,20.892 C39.77,20.892 46.01,27.617 46.01,35.886 C46.01,37.645 45.713,39.327 45.194,40.897 L50.86,40.897 C50.341,39.327 50.044,37.645 50.044,35.886 C50.041,27.618 56.281,20.893 63.951,20.893 L63.951,20.893 Z"></path>
                <path d="M72.781,40.898 C73.478,39.393 73.879,37.692 73.879,35.887 C73.879,29.815 69.426,24.874 63.95,24.874 C58.474,24.874 54.021,29.815 54.021,35.887 C54.021,37.693 54.422,39.393 55.119,40.898"></path>
                <path d="M72.678,52.687 L55.548,52.687 C54.112,52.699 52.731,53.295 51.676,54.366 C50.963,55.089 50.481,55.976 50.251,56.901 L78.14,56.901 C77.707,54.512 75.377,52.723 72.678,52.687 L72.678,52.687 Z"></path>
                <path d="M24.922,48.706 C23.396,47.709 22.064,46.41 20.994,44.879 L10.399,44.879 L5.056,56.901 L14.131,56.901 C14.398,54.938 15.291,53.043 16.744,51.569 C18.546,49.744 20.923,48.725 23.436,48.706 L24.922,48.706 L24.922,48.706 Z"></path>
                <path d="M58.238,44.879 C59.855,46.146 61.823,46.899 63.95,46.899 C66.077,46.899 68.045,46.147 69.662,44.879"></path>
                <path d="M75.055,44.879 C73.985,46.41 72.653,47.71 71.127,48.706 L72.663,48.706 L72.739,48.706 C77.665,48.706 81.7,52.313 82.13,56.901 L90.948,56.901 L85.603,44.879 L75.055,44.879 L75.055,44.879 Z"></path>
                <path d="M52.847,44.879 L43.202,44.879 C42.132,46.41 40.8,47.71 39.274,48.706 L40.567,48.706 L40.643,48.706 C43.74,48.706 46.481,50.146 48.212,52.342 C48.419,52.083 48.604,51.808 48.839,51.569 C50.641,49.744 53.018,48.725 55.531,48.706 L56.774,48.706 C55.249,47.71 53.917,46.41 52.847,44.879 L52.847,44.879 Z"></path>
                <path d="M95.997,58.88 C95.996,58.715 95.941,58.551 95.898,58.386 C95.873,58.293 95.873,58.192 95.836,58.105 C95.833,58.098 95.834,58.091 95.831,58.084 L87.826,40.079 C87.811,40.044 87.78,40.023 87.763,39.99 L86.008,4.88 L85.989,4.88 C85.989,4.843 86.001,4.807 86.001,4.769 C86.001,4.765 85.999,4.763 85.999,4.759 C87.166,4.485 88.008,3.751 88.008,2.88 C88.008,1.776 86.665,0.88 85.009,0.88 C83.349,0.88 82.008,1.776 82.008,2.88 C82.008,3.6 82.584,4.226 83.441,4.579 C83.373,9.502 75.042,13.732 63.051,15.698 C58.606,16.536 53.554,17.043 48.014,17.043 C42.464,17.043 37.403,16.534 32.952,15.692 C20.969,13.722 12.647,9.491 12.592,4.568 C13.433,4.214 13.994,3.592 13.994,2.881 C13.994,1.777 12.653,0.881 10.995,0.881 C9.337,0.881 7.994,1.777 7.994,2.881 C7.994,3.76 8.85,4.498 10.034,4.766 C10.034,4.767 10.033,4.768 10.033,4.77 C10.033,4.808 10.045,4.843 10.045,4.881 L9.994,4.881 L8.239,39.992 C8.222,40.025 8.192,40.045 8.177,40.079 L0.173,58.083 C0.17,58.089 0.172,58.095 0.169,58.1 C0.118,58.217 0.113,58.351 0.085,58.478 C0.057,58.611 0.006,58.741 0.005,58.874 C0.005,58.88 0.002,58.885 0.002,58.891 C0.002,58.982 0.042,59.059 0.054,59.147 C0.076,59.313 0.09,59.479 0.152,59.633 C0.201,59.755 0.286,59.851 0.356,59.96 C0.425,60.066 0.477,60.18 0.566,60.272 C0.681,60.391 0.827,60.471 0.968,60.558 C1.044,60.605 1.099,60.674 1.183,60.711 C1.189,60.713 1.195,60.712 1.2,60.715 C1.431,60.815 1.685,60.869 1.952,60.874 C1.965,60.874 1.977,60.882 1.99,60.882 L1.991,60.882 L1.992,60.882 L94.009,60.882 L94.011,60.882 L94.013,60.882 C94.038,60.882 94.063,60.867 94.089,60.866 C94.34,60.856 94.582,60.81 94.8,60.715 C94.806,60.712 94.813,60.714 94.82,60.711 C94.917,60.668 94.983,60.59 95.07,60.534 C95.196,60.452 95.33,60.383 95.434,60.275 C95.535,60.171 95.597,60.043 95.672,59.921 C95.731,59.825 95.807,59.743 95.849,59.637 C95.922,59.457 95.945,59.265 95.963,59.07 C95.97,59.009 96,58.956 96,58.892 C96,58.888 95.997,58.884 95.997,58.88 L95.997,58.88 Z M48.014,21.023 C64.893,21.023 78.498,16.768 83.695,10.508 L82.007,40.889 L82.021,40.899 L77.044,40.899 C77.563,39.329 77.86,37.647 77.86,35.888 C77.86,27.619 71.62,20.894 63.95,20.894 C56.28,20.894 50.04,27.619 50.04,35.888 C50.04,37.647 50.337,39.329 50.856,40.899 L45.19,40.899 C45.709,39.329 46.006,37.647 46.006,35.888 C46.006,27.619 39.766,20.894 32.096,20.894 C24.426,20.894 18.186,27.619 18.186,35.888 C18.186,37.647 18.483,39.329 19.002,40.899 L13.977,40.899 L13.991,40.889 L12.303,10.469 C17.478,16.75 31.101,21.023 48.014,21.023 L48.014,21.023 Z M69.663,44.879 C68.046,46.146 66.078,46.899 63.951,46.899 C61.824,46.899 59.856,46.147 58.239,44.879 C56.931,43.854 55.858,42.489 55.121,40.898 C54.424,39.393 54.023,37.692 54.023,35.887 C54.023,29.815 58.476,24.874 63.952,24.874 C69.428,24.874 73.881,29.815 73.881,35.887 C73.881,37.693 73.48,39.393 72.783,40.898 C72.045,42.489 70.972,43.854 69.663,44.879 L69.663,44.879 Z M42.027,35.887 C42.027,37.693 41.626,39.393 40.929,40.898 C40.192,42.489 39.119,43.854 37.811,44.879 C36.194,46.146 34.226,46.899 32.099,46.899 C29.972,46.899 28.004,46.147 26.387,44.879 C25.079,43.854 24.006,42.489 23.269,40.898 C22.572,39.393 22.171,37.692 22.171,35.887 C22.171,29.815 26.624,24.874 32.1,24.874 C37.576,24.874 42.027,29.815 42.027,35.887 L42.027,35.887 Z M14.131,56.901 L5.056,56.901 L10.399,44.879 L20.994,44.879 C22.064,46.41 23.396,47.71 24.922,48.706 L23.436,48.706 C20.923,48.725 18.545,49.744 16.744,51.569 C15.291,53.043 14.398,54.939 14.131,56.901 L14.131,56.901 Z M18.155,56.901 C18.385,55.976 18.867,55.089 19.58,54.366 C20.635,53.295 22.016,52.698 23.452,52.687 L40.583,52.687 L40.628,52.687 C43.365,52.687 45.626,54.515 46.047,56.901 L18.155,56.901 L18.155,56.901 Z M48.212,52.342 C46.48,50.146 43.74,48.706 40.643,48.706 L40.567,48.706 L39.274,48.706 C40.8,47.709 42.132,46.41 43.202,44.879 L52.847,44.879 C53.917,46.41 55.249,47.71 56.775,48.706 L55.532,48.706 C53.019,48.725 50.641,49.744 48.84,51.569 C48.604,51.808 48.42,52.083 48.212,52.342 L48.212,52.342 Z M50.25,56.901 C50.48,55.976 50.962,55.089 51.675,54.366 C52.73,53.295 54.111,52.698 55.547,52.687 L72.678,52.687 C75.377,52.722 77.706,54.511 78.139,56.901 L50.25,56.901 L50.25,56.901 Z M82.13,56.901 C81.699,52.313 77.664,48.706 72.739,48.706 L72.663,48.706 L71.127,48.706 C72.653,47.709 73.985,46.41 75.055,44.879 L85.603,44.879 L90.948,56.901 L82.13,56.901 L82.13,56.901 Z" fill="#262B30"></path>
            </g>
            <path d="M73.014,13.881 C66.938,13.881 62.012,8.955 62.012,2.879 C62.012,1.923 62.146,1.001 62.375,0.117 C59.728,2.127 58.011,5.297 58.011,8.878 C58.011,14.954 62.937,19.88 69.013,19.88 C74.137,19.88 78.427,16.375 79.653,11.638 C77.808,13.04 75.512,13.881 73.014,13.881 L73.014,13.881 Z" id="Shape" fill="#262B30" sketch:type="MSShapeGroup"></path>
            <path d="M42.213,9.16 L43.327,11.42 L45.825,11.784 L44.017,13.543 L44.445,16.027 L42.213,14.855 L39.98,16.027 L40.407,13.543 L38.6,11.784 L41.097,11.42 L42.213,9.16 Z" id="Shape" fill="#262B30" sketch:type="MSShapeGroup"></path>
            <path d="M56.438,19.644 L58.072,22.953 L61.727,23.487 L59.081,26.063 L59.707,29.702 L56.438,27.981 L53.17,29.702 L53.796,26.063 L51.151,23.487 L54.805,22.953 L56.438,19.644 Z" id="Shape" fill="#262B30" sketch:type="MSShapeGroup"></path>
        </g>
    </g>
</svg>